<svg width="1000" height="560" viewBox="0 0 1000 560" fill="none" xmlns="http://www.w3.org/2000/svg">
<g clip-path="url(#clip0)">
<rect width="1000" height="560" fill="#8EDDF9"/>
<g opacity="0.7">
<path fill-rule="evenodd" clip-rule="evenodd" d="M872.878 408.869H966.357C972.781 408.869 978.077 414.164 978.077 420.588V561.164C978.077 561.854 977.517 562.414 976.827 562.414C976.136 562.414 975.577 561.854 975.577 561.164V420.588C975.577 415.545 971.4 411.369 966.357 411.369H875.378V541.722C875.378 542.413 874.818 542.972 874.128 542.972C873.438 542.972 872.878 542.413 872.878 541.722V408.869Z" fill="#00A0D6"/>
<path fill-rule="evenodd" clip-rule="evenodd" d="M248.214 202.25C234.883 202.25 223.474 210.053 218.188 221.345C217.895 221.97 217.151 222.24 216.526 221.947C215.9 221.655 215.631 220.911 215.923 220.285C221.605 208.148 233.876 199.75 248.214 199.75C267.976 199.75 283.863 215.766 283.863 235.396C283.863 236.087 283.303 236.646 282.613 236.646C281.923 236.646 281.363 236.087 281.363 235.396C281.363 217.141 266.59 202.25 248.214 202.25Z" fill="#00A0D6"/>
<path fill-rule="evenodd" clip-rule="evenodd" d="M321.62 332.354C321.62 331.663 322.18 331.104 322.87 331.104H391.672V561.288C391.672 561.978 391.112 562.538 390.422 562.538C389.732 562.538 389.172 561.978 389.172 561.288V333.604H322.87C322.18 333.604 321.62 333.044 321.62 332.354Z" fill="#00A0D6"/>
<path fill-rule="evenodd" clip-rule="evenodd" d="M305.172 331.104C305.862 331.104 306.422 331.663 306.422 332.354V561.288C306.422 561.978 305.862 562.538 305.172 562.538C304.482 562.538 303.922 561.978 303.922 561.288V332.354C303.922 331.663 304.482 331.104 305.172 331.104Z" fill="#00A0D6"/>
<path fill-rule="evenodd" clip-rule="evenodd" d="M189.882 235.521C189.882 234.831 190.441 234.271 191.132 234.271H305.172C305.863 234.271 306.422 234.831 306.422 235.521V561.289C306.422 561.979 305.863 562.539 305.172 562.539C304.482 562.539 303.922 561.979 303.922 561.289V236.771H192.382V388.934C192.382 389.624 191.822 390.184 191.132 390.184C190.441 390.184 189.882 389.624 189.882 388.934V235.521Z" fill="#00A0D6"/>
<path fill-rule="evenodd" clip-rule="evenodd" d="M190.255 267.176C190.255 266.485 190.815 265.926 191.505 265.926H305.172C305.862 265.926 306.422 266.485 306.422 267.176C306.422 267.866 305.862 268.426 305.172 268.426H191.505C190.815 268.426 190.255 267.866 190.255 267.176Z" fill="#00A0D6"/>
<path fill-rule="evenodd" clip-rule="evenodd" d="M190.255 299.703C190.255 299.013 190.815 298.453 191.505 298.453H305.172C305.862 298.453 306.422 299.013 306.422 299.703C306.422 300.393 305.862 300.953 305.172 300.953H191.505C190.815 300.953 190.255 300.393 190.255 299.703Z" fill="#00A0D6"/>
<path fill-rule="evenodd" clip-rule="evenodd" d="M190.255 332.354C190.255 331.663 190.815 331.104 191.505 331.104H305.172C305.862 331.104 306.422 331.663 306.422 332.354C306.422 333.044 305.862 333.604 305.172 333.604H191.505C190.815 333.604 190.255 333.044 190.255 332.354Z" fill="#00A0D6"/>
<path fill-rule="evenodd" clip-rule="evenodd" d="M190.255 364.881C190.255 364.191 190.815 363.631 191.505 363.631H305.172C305.862 363.631 306.422 364.191 306.422 364.881C306.422 365.571 305.862 366.131 305.172 366.131H191.505C190.815 366.131 190.255 365.571 190.255 364.881Z" fill="#00A0D6"/>
<path fill-rule="evenodd" clip-rule="evenodd" d="M190.255 397.408C190.255 396.718 190.815 396.158 191.505 396.158H305.172C305.862 396.158 306.422 396.718 306.422 397.408C306.422 398.099 305.862 398.658 305.172 398.658H191.505C190.815 398.658 190.255 398.099 190.255 397.408Z" fill="#00A0D6"/>
<path fill-rule="evenodd" clip-rule="evenodd" d="M211.693 430.059C211.693 429.368 212.253 428.809 212.943 428.809H305.172C305.863 428.809 306.422 429.368 306.422 430.059C306.422 430.749 305.863 431.309 305.172 431.309H212.943C212.253 431.309 211.693 430.749 211.693 430.059Z" fill="#00A0D6"/>
<path fill-rule="evenodd" clip-rule="evenodd" d="M211.693 462.586C211.693 461.896 212.253 461.336 212.943 461.336H305.172C305.863 461.336 306.422 461.896 306.422 462.586C306.422 463.276 305.863 463.836 305.172 463.836H212.943C212.253 463.836 211.693 463.276 211.693 462.586Z" fill="#00A0D6"/>
<path fill-rule="evenodd" clip-rule="evenodd" d="M211.693 495.238C211.693 494.548 212.253 493.988 212.943 493.988H305.172C305.863 493.988 306.422 494.548 306.422 495.238C306.422 495.929 305.863 496.488 305.172 496.488H212.943C212.253 496.488 211.693 495.929 211.693 495.238Z" fill="#00A0D6"/>
<path fill-rule="evenodd" clip-rule="evenodd" d="M211.693 527.764C211.693 527.073 212.253 526.514 212.943 526.514H289.344C290.034 526.514 290.594 527.073 290.594 527.764C290.594 528.454 290.034 529.014 289.344 529.014H212.943C212.253 529.014 211.693 528.454 211.693 527.764Z" fill="#00A0D6"/>
<path fill-rule="evenodd" clip-rule="evenodd" d="M21.75 341.451C21.75 340.761 22.3096 340.201 23 340.201H131.183C131.873 340.201 132.433 340.761 132.433 341.451V561.288C132.433 561.978 131.873 562.538 131.183 562.538C130.492 562.538 129.933 561.978 129.933 561.288V342.701H24.25V561.288C24.25 561.978 23.6904 562.538 23 562.538C22.3096 562.538 21.75 561.978 21.75 561.288V341.451Z" fill="#00A0D6"/>
<path fill-rule="evenodd" clip-rule="evenodd" d="M37.155 340.201H117.028C116.393 334.364 111.375 329.74 105.383 329.74H48.7994C42.8074 329.74 37.7893 334.364 37.155 340.201ZM34.5874 341.451C34.5874 333.657 41.005 327.24 48.7994 327.24H105.383C113.178 327.24 119.595 333.657 119.595 341.451V342.701H34.5874V341.451Z" fill="#00A0D6"/>
<path fill-rule="evenodd" clip-rule="evenodd" d="M401.284 289.751C397.259 286.862 391.672 289.743 391.672 294.718V561.538C391.672 562.228 391.112 562.788 390.422 562.788C389.732 562.788 389.172 562.228 389.172 561.538V294.718C389.172 287.729 397.044 283.631 402.741 287.72C402.741 287.72 402.742 287.72 402.742 287.72L458.326 327.474C458.326 327.474 458.327 327.474 458.327 327.474" fill="#00A0D6"/>
<path fill-rule="evenodd" clip-rule="evenodd" d="M408.992 346.432C409.683 346.432 410.242 346.991 410.242 347.682V516.173C410.242 516.864 409.683 517.423 408.992 517.423C408.302 517.423 407.742 516.864 407.742 516.173V347.682C407.742 346.991 408.302 346.432 408.992 346.432Z" fill="#00A0D6"/>
<path fill-rule="evenodd" clip-rule="evenodd" d="M427.563 359.145C428.253 359.145 428.813 359.704 428.813 360.395V524.275C428.813 524.966 428.253 525.525 427.563 525.525C426.873 525.525 426.313 524.966 426.313 524.275V360.395C426.313 359.704 426.873 359.145 427.563 359.145Z" fill="#00A0D6"/>
<path fill-rule="evenodd" clip-rule="evenodd" d="M446.258 372.729C446.949 372.729 447.508 373.288 447.508 373.979V524.275C447.508 524.966 446.949 525.525 446.258 525.525C445.568 525.525 445.008 524.966 445.008 524.275V373.979C445.008 373.288 445.568 372.729 446.258 372.729Z" fill="#00A0D6"/>
<path fill-rule="evenodd" clip-rule="evenodd" d="M521.534 289.482C521.534 288.792 522.093 288.232 522.784 288.232H631.091C631.781 288.232 632.341 288.792 632.341 289.482V561.537C632.341 562.227 631.781 562.787 631.091 562.787C630.401 562.787 629.841 562.227 629.841 561.537V290.732H524.034V561.537C524.034 562.227 523.474 562.787 522.784 562.787C522.093 562.787 521.534 562.227 521.534 561.537V289.482Z" fill="#00A0D6"/>
<path fill-rule="evenodd" clip-rule="evenodd" d="M547.087 274.656C541.421 274.656 536.871 279.206 536.871 284.872V288.233H617.003V284.872C617.003 279.206 612.453 274.656 606.787 274.656H547.087ZM534.371 284.872C534.371 277.825 540.04 272.156 547.087 272.156H606.787C613.833 272.156 619.503 277.825 619.503 284.872V290.733H534.371V284.872Z" fill="#00A0D6"/>
<path fill-rule="evenodd" clip-rule="evenodd" d="M534.371 321.387C534.371 320.696 534.93 320.137 535.621 320.137H618.129C618.819 320.137 619.379 320.696 619.379 321.387V561.537C619.379 562.228 618.819 562.787 618.129 562.787C617.438 562.787 616.879 562.228 616.879 561.537V322.637H536.871V561.537C536.871 562.228 536.311 562.787 535.621 562.787C534.93 562.787 534.371 562.228 534.371 561.537V321.387Z" fill="#00A0D6"/>
<path fill-rule="evenodd" clip-rule="evenodd" d="M549.456 320.137C550.146 320.137 550.706 320.696 550.706 321.387V545.087C550.706 545.777 550.146 546.337 549.456 546.337C548.765 546.337 548.206 545.777 548.206 545.087V321.387C548.206 320.696 548.765 320.137 549.456 320.137Z" fill="#00A0D6"/>
<path fill-rule="evenodd" clip-rule="evenodd" d="M563.166 320.137C563.856 320.137 564.416 320.696 564.416 321.387V561.537C564.416 562.228 563.856 562.787 563.166 562.787C562.475 562.787 561.916 562.228 561.916 561.537V321.387C561.916 320.696 562.475 320.137 563.166 320.137Z" fill="#00A0D6"/>
<path fill-rule="evenodd" clip-rule="evenodd" d="M576.875 320.137C577.565 320.137 578.125 320.696 578.125 321.387V561.537C578.125 562.228 577.565 562.787 576.875 562.787C576.185 562.787 575.625 562.228 575.625 561.537V321.387C575.625 320.696 576.185 320.137 576.875 320.137Z" fill="#00A0D6"/>
<path fill-rule="evenodd" clip-rule="evenodd" d="M590.709 320.137C591.399 320.137 591.959 320.696 591.959 321.387V561.537C591.959 562.228 591.399 562.787 590.709 562.787C590.019 562.787 589.459 562.228 589.459 561.537V321.387C589.459 320.696 590.019 320.137 590.709 320.137Z" fill="#00A0D6"/>
<path fill-rule="evenodd" clip-rule="evenodd" d="M604.419 320.137C605.109 320.137 605.669 320.696 605.669 321.387V561.537C605.669 562.228 605.109 562.787 604.419 562.787C603.729 562.787 603.169 562.228 603.169 561.537V321.387C603.169 320.696 603.729 320.137 604.419 320.137Z" fill="#00A0D6"/>
<path fill-rule="evenodd" clip-rule="evenodd" d="M646.417 416.725C646.417 416.034 646.977 415.475 647.667 415.475H687.304V561.538C687.304 562.228 686.745 562.788 686.054 562.788C685.364 562.788 684.804 562.228 684.804 561.538V417.975H647.667C646.977 417.975 646.417 417.415 646.417 416.725Z" fill="#00A0D6"/>
<path fill-rule="evenodd" clip-rule="evenodd" d="M631.091 415.475C631.781 415.475 632.341 416.034 632.341 416.725V561.538C632.341 562.228 631.781 562.788 631.091 562.788C630.4 562.788 629.841 562.228 629.841 561.538V416.725C629.841 416.034 630.4 415.475 631.091 415.475Z" fill="#00A0D6"/>
<path fill-rule="evenodd" clip-rule="evenodd" d="M812.957 204.264C807.915 200.729 801.096 204.274 801.096 210.347V561.663C801.096 562.353 800.536 562.913 799.846 562.913C799.155 562.913 798.596 562.353 798.596 561.663V210.347C798.596 202.216 807.725 197.536 814.398 202.221L814.408 202.228L869.737 241.852C873.328 244.342 875.378 248.472 875.378 252.844V541.723C875.378 542.413 874.818 542.973 874.128 542.973C873.437 542.973 872.878 542.413 872.878 541.723V252.844C872.878 249.244 871.192 245.899 868.306 243.902L868.298 243.896L812.962 204.267C812.96 204.266 812.959 204.265 812.957 204.264Z" fill="#00A0D6"/>
<path fill-rule="evenodd" clip-rule="evenodd" d="M813.68 226.42C814.371 226.42 814.93 226.98 814.93 227.67V360.519C814.93 361.21 814.371 361.769 813.68 361.769C812.99 361.769 812.43 361.21 812.43 360.519V227.67C812.43 226.98 812.99 226.42 813.68 226.42Z" fill="#00A0D6"/>
<path fill-rule="evenodd" clip-rule="evenodd" d="M828.761 239.006C829.451 239.006 830.011 239.566 830.011 240.256V360.518C830.011 361.208 829.451 361.768 828.761 361.768C828.07 361.768 827.511 361.208 827.511 360.518V240.256C827.511 239.566 828.07 239.006 828.761 239.006Z" fill="#00A0D6"/>
<path fill-rule="evenodd" clip-rule="evenodd" d="M843.966 249.102C844.657 249.102 845.216 249.661 845.216 250.352V360.519C845.216 361.21 844.657 361.769 843.966 361.769C843.276 361.769 842.716 361.21 842.716 360.519V250.352C842.716 249.661 843.276 249.102 843.966 249.102Z" fill="#00A0D6"/>
<path fill-rule="evenodd" clip-rule="evenodd" d="M859.172 259.195C859.862 259.195 860.422 259.755 860.422 260.445V360.518C860.422 361.209 859.862 361.768 859.172 361.768C858.482 361.768 857.922 361.209 857.922 360.518V260.445C857.922 259.755 858.482 259.195 859.172 259.195Z" fill="#00A0D6"/>
<path fill-rule="evenodd" clip-rule="evenodd" d="M522.784 445.51C523.474 445.51 524.034 446.069 524.034 446.76V561.539C524.034 562.229 523.474 562.789 522.784 562.789C522.093 562.789 521.534 562.229 521.534 561.539V446.76C521.534 446.069 522.093 445.51 522.784 445.51Z" fill="#00A0D6"/>
<path fill-rule="evenodd" clip-rule="evenodd" d="M463.454 445.51H506.581C507.272 445.51 507.831 446.069 507.831 446.76C507.831 447.45 507.272 448.01 506.581 448.01H465.954V561.539C465.954 562.229 465.394 562.789 464.704 562.789C464.014 562.789 463.454 562.229 463.454 561.539V445.51Z" fill="#00A0D6"/>
<path fill-rule="evenodd" clip-rule="evenodd" d="M554.815 257.957C549.398 257.957 544.972 262.382 544.972 267.799V272.157H610.024V267.799C610.024 262.382 605.598 257.957 600.182 257.957H554.815ZM542.472 267.799C542.472 261.002 548.017 255.457 554.815 255.457H600.182C606.979 255.457 612.524 261.002 612.524 267.799V274.657H542.472V267.799Z" fill="#00A0D6"/>
<path fill-rule="evenodd" clip-rule="evenodd" d="M577.498 218.568C578.188 218.568 578.748 219.128 578.748 219.818V256.707C578.748 257.397 578.188 257.957 577.498 257.957C576.808 257.957 576.248 257.397 576.248 256.707V219.818C576.248 219.128 576.808 218.568 577.498 218.568Z" fill="#00A0D6"/>
<path fill-rule="evenodd" clip-rule="evenodd" d="M577.498 211.215C578.188 211.215 578.748 211.774 578.748 212.465V212.714C578.748 213.404 578.188 213.964 577.498 213.964C576.808 213.964 576.248 213.404 576.248 212.714V212.465C576.248 211.774 576.808 211.215 577.498 211.215Z" fill="#00A0D6"/>
<path fill-rule="evenodd" clip-rule="evenodd" d="M892.321 391.426C892.321 390.735 892.88 390.176 893.571 390.176H957.384C958.074 390.176 958.634 390.735 958.634 391.426V410.119C958.634 410.81 958.074 411.369 957.384 411.369H893.571C892.88 411.369 892.321 410.81 892.321 410.119V391.426ZM894.821 392.676V408.869H956.134V392.676H894.821Z" fill="#00A0D6"/>
<path fill-rule="evenodd" clip-rule="evenodd" d="M925.477 368.748C912.956 368.748 902.797 378.906 902.797 391.426C902.797 392.116 902.238 392.676 901.547 392.676C900.857 392.676 900.297 392.116 900.297 391.426C900.297 377.525 911.576 366.248 925.477 366.248C939.379 366.248 950.657 377.525 950.657 391.426C950.657 392.116 950.097 392.676 949.407 392.676C948.717 392.676 948.157 392.116 948.157 391.426C948.157 378.906 937.998 368.748 925.477 368.748Z" fill="#00A0D6"/>
<path fill-rule="evenodd" clip-rule="evenodd" d="M903.538 438.16C903.538 437.47 904.097 436.91 904.788 436.91H939.685C940.375 436.91 940.935 437.47 940.935 438.16C940.935 438.851 940.375 439.41 939.685 439.41H904.788C904.097 439.41 903.538 438.851 903.538 438.16Z" fill="#00A0D6"/>
<path fill-rule="evenodd" clip-rule="evenodd" d="M903.538 460.842C903.538 460.151 904.097 459.592 904.788 459.592H948.409C949.1 459.592 949.659 460.151 949.659 460.842C949.659 461.532 949.1 462.092 948.409 462.092H904.788C904.097 462.092 903.538 461.532 903.538 460.842Z" fill="#00A0D6"/>
<path fill-rule="evenodd" clip-rule="evenodd" d="M903.538 483.523C903.538 482.833 904.097 482.273 904.788 482.273H948.409C949.1 482.273 949.659 482.833 949.659 483.523C949.659 484.214 949.1 484.773 948.409 484.773H904.788C904.097 484.773 903.538 484.214 903.538 483.523Z" fill="#00A0D6"/>
<path fill-rule="evenodd" clip-rule="evenodd" d="M140.278 409.372C140.278 402.834 145.564 397.404 152.246 397.404C152.937 397.404 153.496 397.964 153.496 398.654C153.496 399.345 152.937 399.904 152.246 399.904C146.963 399.904 142.778 404.196 142.778 409.372V417.597C142.778 418.288 142.218 418.847 141.528 418.847C136.609 418.847 132.558 422.899 132.558 427.816V561.538C132.558 562.228 131.998 562.788 131.308 562.788C130.617 562.788 130.058 562.228 130.058 561.538V427.816C130.058 421.94 134.559 417.045 140.278 416.416V409.372Z" fill="#00A0D6"/>
<path fill-rule="evenodd" clip-rule="evenodd" d="M151.684 383.677C153.097 379.436 157.059 376.467 161.719 376.467H181.785C187.71 376.467 192.507 381.264 192.507 387.188V397.469C198.473 398.091 203.225 403.12 203.225 409.371V416.415C208.944 417.045 213.445 421.939 213.445 427.816V561.537C213.445 562.228 212.886 562.787 212.195 562.787C211.505 562.787 210.945 562.228 210.945 561.537V427.816C210.945 422.898 206.894 418.847 201.975 418.847C201.285 418.847 200.725 418.287 200.725 417.597V409.371C200.725 404.089 196.434 399.904 191.257 399.904C190.567 399.904 190.007 399.344 190.007 398.654V387.188C190.007 382.644 186.329 378.967 181.785 378.967H161.719C158.152 378.967 155.134 381.231 154.055 384.468C153.837 385.123 153.129 385.477 152.474 385.258C151.819 385.04 151.465 384.332 151.684 383.677Z" fill="#00A0D6"/>
<path fill-rule="evenodd" clip-rule="evenodd" d="M799.846 299.324C800.536 299.324 801.096 299.884 801.096 300.574V562.036C801.096 562.726 800.536 563.286 799.846 563.286C799.155 563.286 798.596 562.726 798.596 562.036V300.574C798.596 299.884 799.155 299.324 799.846 299.324Z" fill="#00A0D6"/>
<path fill-rule="evenodd" clip-rule="evenodd" d="M696.524 301.824C691.481 301.824 687.305 306 687.305 311.043V562.036C687.305 562.726 686.745 563.286 686.055 563.286C685.364 563.286 684.805 562.726 684.805 562.036V311.043C684.805 304.619 690.101 299.324 696.524 299.324H784.017C784.708 299.324 785.267 299.884 785.267 300.574C785.267 301.265 784.708 301.824 784.017 301.824H696.524Z" fill="#00A0D6"/>
<path fill-rule="evenodd" clip-rule="evenodd" d="M701.381 332.977C701.381 332.286 701.941 331.727 702.631 331.727H799.97C800.661 331.727 801.22 332.286 801.22 332.977C801.22 333.667 800.661 334.227 799.97 334.227H702.631C701.941 334.227 701.381 333.667 701.381 332.977Z" fill="#00A0D6"/>
<path fill-rule="evenodd" clip-rule="evenodd" d="M701.381 365.629C701.381 364.939 701.941 364.379 702.631 364.379H799.97C800.661 364.379 801.22 364.939 801.22 365.629C801.22 366.319 800.661 366.879 799.97 366.879H702.631C701.941 366.879 701.381 366.319 701.381 365.629Z" fill="#00A0D6"/>
<path fill-rule="evenodd" clip-rule="evenodd" d="M701.381 398.156C701.381 397.466 701.941 396.906 702.631 396.906H799.97C800.661 396.906 801.22 397.466 801.22 398.156C801.22 398.847 800.661 399.406 799.97 399.406H702.631C701.941 399.406 701.381 398.847 701.381 398.156Z" fill="#00A0D6"/>
<path fill-rule="evenodd" clip-rule="evenodd" d="M701.381 430.807C701.381 430.116 701.941 429.557 702.631 429.557H799.97C800.661 429.557 801.22 430.116 801.22 430.807C801.22 431.497 800.661 432.057 799.97 432.057H702.631C701.941 432.057 701.381 431.497 701.381 430.807Z" fill="#00A0D6"/>
<path fill-rule="evenodd" clip-rule="evenodd" d="M701.381 463.334C701.381 462.644 701.941 462.084 702.631 462.084H799.97C800.661 462.084 801.22 462.644 801.22 463.334C801.22 464.024 800.661 464.584 799.97 464.584H702.631C701.941 464.584 701.381 464.024 701.381 463.334Z" fill="#00A0D6"/>
<path fill-rule="evenodd" clip-rule="evenodd" d="M701.381 495.984C701.381 495.294 701.941 494.734 702.631 494.734H799.97C800.661 494.734 801.22 495.294 801.22 495.984C801.22 496.675 800.661 497.234 799.97 497.234H702.631C701.941 497.234 701.381 496.675 701.381 495.984Z" fill="#00A0D6"/>
<path fill-rule="evenodd" clip-rule="evenodd" d="M701.381 528.512C701.381 527.821 701.941 527.262 702.631 527.262H799.97C800.661 527.262 801.22 527.821 801.22 528.512C801.22 529.202 800.661 529.762 799.97 529.762H702.631C701.941 529.762 701.381 529.202 701.381 528.512Z" fill="#00A0D6"/>
<path fill-rule="evenodd" clip-rule="evenodd" d="M658.261 529.762C654.612 529.762 651.41 533.158 651.41 537.734V560.54C651.41 561.23 650.85 561.79 650.16 561.79C649.469 561.79 648.91 561.23 648.91 560.54V537.734C648.91 532.091 652.937 527.262 658.261 527.262C663.585 527.262 667.612 532.091 667.612 537.734V560.54C667.612 561.23 667.052 561.79 666.362 561.79C665.672 561.79 665.112 561.23 665.112 560.54V537.734C665.112 533.158 661.91 529.762 658.261 529.762Z" fill="#00A0D6"/>
<path fill-rule="evenodd" clip-rule="evenodd" d="M44.811 548.074C45.5014 548.074 46.061 548.634 46.061 549.324V561.288C46.061 561.978 45.5014 562.538 44.811 562.538C44.1207 562.538 43.561 561.978 43.561 561.288V549.324C43.561 548.634 44.1207 548.074 44.811 548.074Z" fill="#00A0D6"/>
<path fill-rule="evenodd" clip-rule="evenodd" d="M43.561 387.811C43.561 387.12 44.1207 386.561 44.811 386.561H55.4049C56.0953 386.561 56.6549 387.12 56.6549 387.811V561.287C56.6549 561.978 56.0953 562.537 55.4049 562.537C54.7146 562.537 54.1549 561.978 54.1549 561.287V389.061H46.061V533.621C46.061 534.311 45.5014 534.871 44.811 534.871C44.1207 534.871 43.561 534.311 43.561 533.621V387.811Z" fill="#00A0D6"/>
<path fill-rule="evenodd" clip-rule="evenodd" d="M70.6064 387.811C70.6064 387.12 71.1661 386.561 71.8564 386.561H82.4504C83.1407 386.561 83.7004 387.12 83.7004 387.811V561.287C83.7004 561.978 83.1407 562.537 82.4504 562.537C81.76 562.537 81.2004 561.978 81.2004 561.287V389.061H73.1064V561.287C73.1064 561.978 72.5468 562.537 71.8564 562.537C71.1661 562.537 70.6064 561.978 70.6064 561.287V387.811Z" fill="#00A0D6"/>
<path fill-rule="evenodd" clip-rule="evenodd" d="M97.6523 387.811C97.6523 387.12 98.212 386.561 98.9023 386.561H109.496C110.187 386.561 110.746 387.12 110.746 387.811V561.287C110.746 561.978 110.187 562.537 109.496 562.537C108.806 562.537 108.246 561.978 108.246 561.287V389.061H100.152V561.287C100.152 561.978 99.5927 562.537 98.9023 562.537C98.212 562.537 97.6523 561.978 97.6523 561.287V387.811Z" fill="#00A0D6"/>
<path fill-rule="evenodd" clip-rule="evenodd" d="M162.092 489.26C152.113 489.26 144.023 497.349 144.023 507.327C144.023 517.304 152.113 525.393 162.092 525.393C172.071 525.393 180.16 517.304 180.16 507.327C180.16 497.349 172.071 489.26 162.092 489.26ZM141.523 507.327C141.523 495.968 150.732 486.76 162.092 486.76C173.451 486.76 182.66 495.968 182.66 507.327C182.66 518.685 173.451 527.893 162.092 527.893C150.732 527.893 141.523 518.685 141.523 507.327Z" fill="#00A0D6"/>
<path fill-rule="evenodd" clip-rule="evenodd" d="M162.092 518.912C162.782 518.912 163.342 519.472 163.342 520.162V561.537C163.342 562.228 162.782 562.787 162.092 562.787C161.401 562.787 160.842 562.228 160.842 561.537V520.162C160.842 519.472 161.401 518.912 162.092 518.912Z" fill="#00A0D6"/>
<path fill-rule="evenodd" clip-rule="evenodd" d="M162.092 511.561C162.782 511.561 163.342 512.12 163.342 512.811V513.06C163.342 513.75 162.782 514.31 162.092 514.31C161.401 514.31 160.842 513.75 160.842 513.06V512.811C160.842 512.12 161.401 511.561 162.092 511.561Z" fill="#00A0D6"/>
<path fill-rule="evenodd" clip-rule="evenodd" d="M325.483 353.041C325.483 352.351 326.043 351.791 326.733 351.791H339.321C340.012 351.791 340.571 352.351 340.571 353.041V377.093C340.571 377.784 340.012 378.343 339.321 378.343H326.733C326.043 378.343 325.483 377.784 325.483 377.093V353.041ZM327.983 354.291V375.843H338.071V354.291H327.983Z" fill="#00A0D6"/>
<path fill-rule="evenodd" clip-rule="evenodd" d="M355.022 353.041C355.022 352.351 355.582 351.791 356.272 351.791H368.86C369.55 351.791 370.11 352.351 370.11 353.041V377.093C370.11 377.784 369.55 378.343 368.86 378.343H356.272C355.582 378.343 355.022 377.784 355.022 377.093V353.041ZM357.522 354.291V375.843H367.61V354.291H357.522Z" fill="#00A0D6"/>
<path fill-rule="evenodd" clip-rule="evenodd" d="M325.483 394.916C325.483 394.226 326.043 393.666 326.733 393.666H339.321C340.012 393.666 340.571 394.226 340.571 394.916V418.968C340.571 419.659 340.012 420.218 339.321 420.218H326.733C326.043 420.218 325.483 419.659 325.483 418.968V394.916ZM327.983 396.166V417.718H338.071V396.166H327.983Z" fill="#00A0D6"/>
<path fill-rule="evenodd" clip-rule="evenodd" d="M355.022 394.916C355.022 394.226 355.582 393.666 356.272 393.666H368.86C369.55 393.666 370.11 394.226 370.11 394.916V418.968C370.11 419.659 369.55 420.218 368.86 420.218H356.272C355.582 420.218 355.022 419.659 355.022 418.968V394.916ZM357.522 396.166V417.718H367.61V396.166H357.522Z" fill="#00A0D6"/>
<path fill-rule="evenodd" clip-rule="evenodd" d="M325.483 440.279C325.483 439.589 326.043 439.029 326.733 439.029H339.321C340.012 439.029 340.571 439.589 340.571 440.279V464.332C340.571 465.022 340.012 465.582 339.321 465.582H326.733C326.043 465.582 325.483 465.022 325.483 464.332V440.279ZM327.983 441.529V463.082H338.071V441.529H327.983Z" fill="#00A0D6"/>
<path fill-rule="evenodd" clip-rule="evenodd" d="M355.022 440.279C355.022 439.589 355.582 439.029 356.272 439.029H368.86C369.55 439.029 370.11 439.589 370.11 440.279V464.332C370.11 465.022 369.55 465.582 368.86 465.582H356.272C355.582 465.582 355.022 465.022 355.022 464.332V440.279ZM357.522 441.529V463.082H367.61V441.529H357.522Z" fill="#00A0D6"/>
<path fill-rule="evenodd" clip-rule="evenodd" d="M312.522 332.354C312.522 331.663 313.082 331.104 313.772 331.104H313.897C314.587 331.104 315.147 331.663 315.147 332.354C315.147 333.044 314.587 333.604 313.897 333.604H313.772C313.082 333.604 312.522 333.044 312.522 332.354Z" fill="#00A0D6"/>
<path fill-rule="evenodd" clip-rule="evenodd" d="M513.058 446.76C513.058 446.069 513.618 445.51 514.308 445.51H514.433C515.123 445.51 515.683 446.069 515.683 446.76C515.683 447.45 515.123 448.01 514.433 448.01H514.308C513.618 448.01 513.058 447.45 513.058 446.76Z" fill="#00A0D6"/>
<path fill-rule="evenodd" clip-rule="evenodd" d="M493.744 476.541C494.434 476.541 494.994 477.101 494.994 477.791V478.04C494.994 478.731 494.434 479.29 493.744 479.29C493.053 479.29 492.494 478.731 492.494 478.04V477.791C492.494 477.101 493.053 476.541 493.744 476.541Z" fill="#00A0D6"/>
<path fill-rule="evenodd" clip-rule="evenodd" d="M493.744 493.988C494.434 493.988 494.994 494.548 494.994 495.238V495.488C494.994 496.178 494.434 496.738 493.744 496.738C493.053 496.738 492.494 496.178 492.494 495.488V495.238C492.494 494.548 493.053 493.988 493.744 493.988Z" fill="#00A0D6"/>
<path fill-rule="evenodd" clip-rule="evenodd" d="M493.744 511.436C494.434 511.436 494.994 511.995 494.994 512.686V512.81C494.994 513.501 494.434 514.06 493.744 514.06C493.053 514.06 492.494 513.501 492.494 512.81V512.686C492.494 511.995 493.053 511.436 493.744 511.436Z" fill="#00A0D6"/>
<path fill-rule="evenodd" clip-rule="evenodd" d="M214.937 226.793C215.627 226.793 216.187 227.353 216.187 228.043V228.168C216.187 228.858 215.627 229.418 214.937 229.418C214.247 229.418 213.687 228.858 213.687 228.168V228.043C213.687 227.353 214.247 226.793 214.937 226.793Z" fill="#00A0D6"/>
<path fill-rule="evenodd" clip-rule="evenodd" d="M152.246 390.051C152.936 390.051 153.496 390.61 153.496 391.301V391.55C153.496 392.24 152.936 392.8 152.246 392.8C151.555 392.8 150.996 392.24 150.996 391.55V391.301C150.996 390.61 151.555 390.051 152.246 390.051Z" fill="#00A0D6"/>
<path fill-rule="evenodd" clip-rule="evenodd" d="M408.992 522.775C409.683 522.775 410.242 523.335 410.242 524.025V524.275C410.242 524.965 409.683 525.525 408.992 525.525C408.302 525.525 407.742 524.965 407.742 524.275V524.025C407.742 523.335 408.302 522.775 408.992 522.775Z" fill="#00A0D6"/>
<path fill-rule="evenodd" clip-rule="evenodd" d="M44.811 540.846C45.5014 540.846 46.061 541.405 46.061 542.096V542.345C46.061 543.035 45.5014 543.595 44.811 543.595C44.1207 543.595 43.561 543.035 43.561 542.345V542.096C43.561 541.405 44.1207 540.846 44.811 540.846Z" fill="#00A0D6"/>
<path fill-rule="evenodd" clip-rule="evenodd" d="M549.456 551.564C550.146 551.564 550.706 552.124 550.706 552.814V553.064C550.706 553.754 550.146 554.314 549.456 554.314C548.765 554.314 548.206 553.754 548.206 553.064V552.814C548.206 552.124 548.765 551.564 549.456 551.564Z" fill="#00A0D6"/>
<path fill-rule="evenodd" clip-rule="evenodd" d="M947.035 438.16C947.035 437.47 947.595 436.91 948.285 436.91H948.41C949.1 436.91 949.66 437.47 949.66 438.16C949.66 438.851 949.1 439.41 948.41 439.41H948.285C947.595 439.41 947.035 438.851 947.035 438.16Z" fill="#00A0D6"/>
<path fill-rule="evenodd" clip-rule="evenodd" d="M813.68 369.488C814.371 369.488 814.93 370.048 814.93 370.738V370.863C814.93 371.553 814.371 372.113 813.68 372.113C812.99 372.113 812.43 371.553 812.43 370.863V370.738C812.43 370.048 812.99 369.488 813.68 369.488Z" fill="#00A0D6"/>
<path fill-rule="evenodd" clip-rule="evenodd" d="M828.761 369.488C829.451 369.488 830.011 370.048 830.011 370.738V370.863C830.011 371.553 829.451 372.113 828.761 372.113C828.07 372.113 827.511 371.553 827.511 370.863V370.738C827.511 370.048 828.07 369.488 828.761 369.488Z" fill="#00A0D6"/>
<path fill-rule="evenodd" clip-rule="evenodd" d="M843.966 369.488C844.657 369.488 845.216 370.048 845.216 370.738V370.863C845.216 371.553 844.657 372.113 843.966 372.113C843.276 372.113 842.716 371.553 842.716 370.863V370.738C842.716 370.048 843.276 369.488 843.966 369.488Z" fill="#00A0D6"/>
<path fill-rule="evenodd" clip-rule="evenodd" d="M859.172 369.488C859.862 369.488 860.422 370.048 860.422 370.738V370.863C860.422 371.553 859.862 372.113 859.172 372.113C858.482 372.113 857.922 371.553 857.922 370.863V370.738C857.922 370.048 858.482 369.488 859.172 369.488Z" fill="#00A0D6"/>
<path fill-rule="evenodd" clip-rule="evenodd" d="M813.68 379.334C814.371 379.334 814.93 379.894 814.93 380.584V528.513C814.93 529.203 814.371 529.763 813.68 529.763C812.99 529.763 812.43 529.203 812.43 528.513V380.584C812.43 379.894 812.99 379.334 813.68 379.334Z" fill="#00A0D6"/>
<path fill-rule="evenodd" clip-rule="evenodd" d="M828.761 379.334C829.451 379.334 830.011 379.894 830.011 380.584V528.513C830.011 529.203 829.451 529.763 828.761 529.763C828.07 529.763 827.511 529.203 827.511 528.513V380.584C827.511 379.894 828.07 379.334 828.761 379.334Z" fill="#00A0D6"/>
<path fill-rule="evenodd" clip-rule="evenodd" d="M843.842 379.334C844.532 379.334 845.092 379.894 845.092 380.584V528.513C845.092 529.203 844.532 529.763 843.842 529.763C843.151 529.763 842.592 529.203 842.592 528.513V380.584C842.592 379.894 843.151 379.334 843.842 379.334Z" fill="#00A0D6"/>
<path fill-rule="evenodd" clip-rule="evenodd" d="M859.047 379.334C859.737 379.334 860.297 379.894 860.297 380.584V528.513C860.297 529.203 859.737 529.763 859.047 529.763C858.357 529.763 857.797 529.203 857.797 528.513V380.584C857.797 379.894 858.357 379.334 859.047 379.334Z" fill="#00A0D6"/>
<path fill-rule="evenodd" clip-rule="evenodd" d="M295.945 527.764C295.945 527.073 296.505 526.514 297.195 526.514H297.32C298.01 526.514 298.57 527.073 298.57 527.764C298.57 528.454 298.01 529.014 297.32 529.014H297.195C296.505 529.014 295.945 528.454 295.945 527.764Z" fill="#00A0D6"/>
<path fill-rule="evenodd" clip-rule="evenodd" d="M153.364 446.76C153.364 446.069 153.923 445.51 154.614 445.51H154.863C155.553 445.51 156.113 446.069 156.113 446.76C156.113 447.45 155.553 448.01 154.863 448.01H154.614C153.923 448.01 153.364 447.45 153.364 446.76Z" fill="#00A0D6"/>
<path fill-rule="evenodd" clip-rule="evenodd" d="M170.812 446.76C170.812 446.069 171.372 445.51 172.062 445.51H172.312C173.002 445.51 173.562 446.069 173.562 446.76C173.562 447.45 173.002 448.01 172.312 448.01H172.062C171.372 448.01 170.812 447.45 170.812 446.76Z" fill="#00A0D6"/>
<path fill-rule="evenodd" clip-rule="evenodd" d="M188.261 446.76C188.261 446.069 188.821 445.51 189.511 445.51H189.76C190.451 445.51 191.01 446.069 191.01 446.76C191.01 447.45 190.451 448.01 189.76 448.01H189.511C188.821 448.01 188.261 447.45 188.261 446.76Z" fill="#00A0D6"/>
<path fill-rule="evenodd" clip-rule="evenodd" d="M637.942 416.725C637.942 416.034 638.502 415.475 639.192 415.475H639.317C640.007 415.475 640.567 416.034 640.567 416.725C640.567 417.415 640.007 417.975 639.317 417.975H639.192C638.502 417.975 637.942 417.415 637.942 416.725Z" fill="#00A0D6"/>
<path fill-rule="evenodd" clip-rule="evenodd" d="M790.245 300.574C790.245 299.884 790.805 299.324 791.495 299.324H791.62C792.31 299.324 792.87 299.884 792.87 300.574C792.87 301.265 792.31 301.824 791.62 301.824H791.495C790.805 301.824 790.245 301.265 790.245 300.574Z" fill="#00A0D6"/>
<path fill-rule="evenodd" clip-rule="evenodd" d="M884.099 540.604C872.699 540.604 863.538 549.765 863.538 561.163C863.538 561.853 862.978 562.413 862.288 562.413C861.597 562.413 861.038 561.853 861.038 561.163C861.038 548.384 871.319 538.104 884.099 538.104C896.878 538.104 907.16 548.384 907.16 561.163C907.16 561.853 906.6 562.413 905.91 562.413C905.219 562.413 904.66 561.853 904.66 561.163C904.66 549.765 895.498 540.604 884.099 540.604Z" fill="#00A0D6"/>
</g>
<path d="M756.228 452.722L394.607 452.622C381.183 452.613 370.297 441.726 370.305 428.301L370.362 208.166C370.37 194.741 381.257 183.855 394.682 183.863L756.317 183.968C769.742 183.976 780.628 194.864 780.62 208.288L780.548 428.419C780.555 441.849 769.667 452.735 756.228 452.722Z" fill="white"/>
<path d="M737.314 374.589L633.109 374.556C629.561 374.551 626.696 371.675 626.683 368.137C626.688 364.588 629.564 361.724 633.102 361.71L737.307 361.743C740.855 361.749 743.72 364.624 743.733 368.163C743.742 371.716 740.862 374.595 737.314 374.589Z" fill="#D3CECB"/>
<path d="M712.769 397.163L633.099 397.132C629.55 397.127 626.685 394.252 626.672 390.713C626.678 387.165 629.553 384.3 633.091 384.286L712.762 384.317C716.31 384.322 719.175 387.198 719.188 390.736C719.197 394.289 716.317 397.168 712.769 397.163Z" fill="#D3CECB"/>
<path d="M677.323 419.73L633.102 419.713C629.554 419.707 626.689 416.832 626.676 413.293C626.681 409.745 629.556 406.88 633.095 406.867L677.316 406.885C680.864 406.89 683.729 409.765 683.742 413.304C683.737 416.852 680.871 419.736 677.323 419.73Z" fill="#D3CECB"/>
<path d="M703.032 419.421C706.403 420.521 710.027 418.679 711.127 415.308C712.226 411.937 710.385 408.313 707.014 407.213C703.643 406.114 700.019 407.955 698.919 411.326C697.82 414.697 699.661 418.321 703.032 419.421Z" fill="#D3CECB"/>
<path d="M713.014 223.732L707.628 211.192L704.845 211.188L699.43 223.716L702.416 223.719L703.359 221.379L708.962 221.386L709.899 223.728L713.014 223.732ZM706.168 214.471L707.951 218.915L704.375 218.911L706.168 214.471ZM723.054 217.071C723.921 216.519 724.457 215.635 724.458 214.511C724.46 212.705 722.895 211.21 720.61 211.207L714.583 211.2L714.568 223.734L720.853 223.741C723.267 223.744 724.91 222.124 724.912 220.041C724.914 218.696 724.215 217.644 723.054 217.071ZM720.146 213.639C720.902 213.64 721.565 214.047 721.564 214.913C721.563 215.779 720.899 216.184 720.143 216.183L717.415 216.18L717.418 213.636L720.146 213.639ZM717.409 221.286L717.412 218.447L720.417 218.451C721.246 218.452 722.02 218.876 722.019 219.872C722.018 220.867 721.243 221.29 720.413 221.289L717.409 221.286ZM733.044 224.014C735.698 224.017 737.709 222.747 738.78 220.703L736.219 219.465C735.684 220.404 734.687 221.343 733.047 221.341C730.946 221.338 729.399 219.659 729.402 217.484C729.405 215.309 730.955 213.634 733.056 213.636C734.697 213.638 735.672 214.543 736.224 215.52L738.788 214.288C737.776 212.278 735.677 210.967 733.059 210.964C729.594 210.96 726.458 213.426 726.453 217.481C726.448 221.536 729.579 224.009 733.044 224.014ZM745.585 211.237L740.682 211.231L740.667 223.765L745.57 223.77C749.017 223.775 752.153 221.401 752.157 217.511C752.162 213.622 749.031 211.241 745.585 211.237ZM743.601 221.132L743.609 213.87L745.582 213.873C747.646 213.875 749.174 215.48 749.171 217.508C749.169 219.535 747.637 221.137 745.573 221.135L743.601 221.132ZM706.919 228.191L704.173 228.187C704.172 229.367 703.378 230.103 702.106 230.102L701.443 230.101L701.44 232.608L702.103 232.609C703.007 232.61 703.67 232.389 704.15 231.948L704.142 238.436L701.267 238.432L701.264 240.718L709.503 240.728L709.506 238.442L706.907 238.439L706.919 228.191ZM717.301 238.212C718.686 236.37 722.963 235.712 722.967 231.988C722.97 229.629 721.129 227.894 718.548 227.891C715.95 227.888 714.307 229.6 713.899 231.517L716.442 232.349C716.701 231.336 717.329 230.489 718.472 230.49C719.485 230.491 720.167 231.137 720.165 232.151C720.162 234.75 713.895 235 713.889 239.959L713.888 240.733L723.049 240.744L723.052 238.219L717.301 238.212ZM734.781 234.122C735.648 233.625 736.257 232.686 736.259 231.507C736.261 229.534 734.659 227.966 732.042 227.963C729.591 227.96 728.114 229.451 727.615 231.035L730.157 231.923C730.343 231.076 730.989 230.431 731.984 230.432C732.961 230.434 733.513 231.042 733.512 231.761C733.511 232.48 733.013 233.125 731.925 233.123L731.17 233.123L731.167 235.427L731.941 235.427C733.176 235.429 733.839 236.093 733.838 236.904C733.837 237.771 733.154 238.47 732.048 238.469C730.905 238.467 730.15 237.766 729.894 236.734L727.33 237.634C727.752 239.385 729.225 241.046 732.082 241.049C734.754 241.053 736.618 239.322 736.621 237.11C736.622 235.691 735.886 234.621 734.781 234.122ZM749.948 235.873L749.957 228.242L746.658 228.238L741.1 236.489L741.098 238.332L747.272 238.339L747.269 240.773L749.942 240.776L749.945 238.343L751.604 238.345L751.607 235.875L749.948 235.873ZM747.281 231.28L747.275 235.87L744.197 235.866L747.281 231.28ZM704.853 254.598L710.18 254.604L710.183 252.005L704.856 251.999L704.859 249.806L711.181 249.813L711.184 247.196L701.931 247.185L701.916 259.719L711.28 259.73L711.283 257.112L704.85 257.105L704.853 254.598ZM722.708 247.21L713.64 247.199L713.625 259.732L716.555 259.736L716.561 254.962L721.888 254.968L721.891 252.351L716.564 252.345L716.567 249.82L722.705 249.827L722.708 247.21ZM730.207 255.329L733.524 255.332C733.357 256.42 732.305 257.377 730.702 257.375C728.508 257.372 726.981 255.656 726.983 253.482C726.986 251.307 728.536 249.631 730.637 249.634C732.315 249.636 733.346 250.558 733.805 251.444L736.406 250.101C735.339 248.146 733.239 246.964 730.64 246.961C727.194 246.957 724.039 249.423 724.034 253.478C724.029 257.515 726.865 260.025 730.035 260.028C731.805 260.031 733.132 259.369 734 258.337L733.998 259.757L736.468 259.76L736.476 252.811L730.21 252.803L730.207 255.329ZM747.343 252.05L742.016 252.043L742.022 247.233L739.091 247.229L739.076 259.763L742.007 259.766L742.013 254.642L747.34 254.649L747.334 259.773L750.246 259.776L750.261 247.242L747.348 247.239L747.343 252.05Z" fill="black"/>
<path d="M554.855 387.685L527.358 411.665V382.996L554.855 387.685Z" fill="#99290A"/>
<path d="M567.964 344.844L539.189 364.134L520.005 361.789L528.744 336.957L567.964 344.844Z" fill="#99290A"/>
<path d="M493.681 198.727L547.501 155.564C555.495 149.169 567.218 150.555 573.506 158.655C579.048 165.902 578.515 176.133 572.12 182.634L493.787 262.886V198.727H493.681Z" fill="#99290A"/>
<path d="M528.531 170.805L540.68 161L533.007 222.601L528.531 227.184V170.805Z" fill="#4F1600"/>
<path d="M492.722 265.124L546.542 221.961C554.536 215.566 566.259 216.951 572.547 225.051C578.089 232.298 577.556 242.53 571.161 249.031L492.828 329.282V265.124H492.722Z" fill="#99290A"/>
<path d="M525.44 238.799L539.721 227.289L532.687 288.25L529.596 291.448L525.44 238.799Z" fill="#4F1600"/>
<path d="M413.11 563.003L437.302 503.534C437.302 503.534 480.998 472.414 501.035 432.555L372.611 432.981L319.003 563.003H413.11Z" fill="#99290A"/>
<path d="M531.515 149.063V132.544C531.515 122.313 523.522 114 513.504 114H375.062C365.151 114 357.051 122.313 357.051 132.544V149.063H531.515Z" fill="black"/>
<path d="M357.051 404.205V423.708C357.051 433.94 365.044 442.253 375.062 442.253H513.504C523.415 442.253 531.515 433.94 531.515 423.708V404.205H357.051Z" fill="black"/>
<path d="M357.151 404.143L531.509 404.143L531.509 149L357.151 149L357.151 404.143Z" fill="white"/>
<path d="M388.277 383.53H497.944C503.592 383.53 508.175 378.947 508.175 373.298V367.223C508.175 361.575 503.592 356.992 497.944 356.992H388.277C382.629 356.992 378.046 361.575 378.046 367.223V373.298C378.046 378.947 382.629 383.53 388.277 383.53Z" fill="#00A0D6"/>
<path d="M393.819 331.946H492.295C501.034 331.946 508.068 324.912 508.068 316.173V187.963C508.068 179.223 501.034 172.189 492.295 172.189H393.819C385.08 172.189 378.046 179.223 378.046 187.963V316.28C378.046 324.912 385.08 331.946 393.819 331.946Z" fill="#FDEFEE"/>
<path opacity="0.5" d="M431.44 373.404H454.567C456.273 373.404 457.765 372.019 457.765 370.207C457.765 368.502 456.379 367.01 454.567 367.01H431.44C429.735 367.01 428.243 368.395 428.243 370.207C428.35 372.019 429.735 373.404 431.44 373.404Z" fill="white"/>
<path d="M525.014 312.23L555.281 308.82C567.005 307.434 577.129 317.133 576.17 328.962L576.064 330.668C575.318 340.046 567.751 347.507 558.372 348.04L528.211 349.851C516.808 350.491 507.429 341.006 508.281 329.602C509.027 320.543 516.061 313.296 525.014 312.23Z" fill="#99290A"/>
<path d="M515.102 362.321L541.107 359.337C551.232 358.165 559.864 366.478 559.118 376.602L559.012 377.988C558.372 386.088 551.871 392.482 543.771 392.908L517.873 394.401C508.068 394.933 500.075 386.834 500.821 377.029C501.354 369.462 507.322 363.174 515.102 362.321Z" fill="#99290A"/>
<path d="M528.211 349.853L548.674 346.549" stroke="#4F1600" stroke-width="2.5" stroke-miterlimit="10" stroke-linecap="round"/>
<path d="M529.917 393.867L538.443 393.334" stroke="#4F1600" stroke-width="2.5" stroke-miterlimit="10" stroke-linecap="round"/>
<path d="M253.459 563.003L289.482 475.824C292.785 467.831 294.384 459.305 294.277 450.778L292.999 336.742C292.892 331.733 293.851 326.724 295.556 322.035L333.817 219.509C336.801 211.623 346.713 209.065 353.001 214.713C355.558 216.951 357.157 220.255 357.157 223.772V325.339C357.157 325.339 424.62 388.005 377.193 468.896L343.942 563.109H253.459V563.003Z" fill="#99290A"/>
<path d="M389.876 443.852C389.876 443.852 388.277 449.5 379.964 461.65" stroke="#4F1600" stroke-width="2.5" stroke-miterlimit="10" stroke-linecap="round"/>
<path d="M384.867 453.231L446.681 442.254H389.023L384.867 453.231Z" fill="#4F1600"/>
<path d="M419.448 230.543L410.684 210.205H406.168L397.405 230.543H402.25L403.775 226.744H412.868L414.393 230.543H419.448ZM408.322 215.528L411.223 222.737H405.42L408.322 215.528ZM435.727 219.716C437.133 218.819 438 217.383 438 215.558C438 212.627 435.458 210.205 431.749 210.205H421.969V230.543H432.168C436.086 230.543 438.748 227.911 438.748 224.531C438.748 222.348 437.611 220.643 435.727 219.716ZM431.001 214.153C432.228 214.153 433.304 214.811 433.304 216.216C433.304 217.622 432.228 218.28 431.001 218.28H426.575V214.153H431.001ZM426.575 226.565V221.959H431.45C432.796 221.959 434.052 222.647 434.052 224.262C434.052 225.877 432.796 226.565 431.45 226.565H426.575ZM451.95 230.962C456.257 230.962 459.517 228.898 461.252 225.578L457.095 223.574C456.227 225.099 454.612 226.625 451.95 226.625C448.54 226.625 446.028 223.903 446.028 220.374C446.028 216.844 448.54 214.123 451.95 214.123C454.612 214.123 456.197 215.588 457.095 217.173L461.252 215.17C459.607 211.909 456.197 209.786 451.95 209.786C446.327 209.786 441.243 213.794 441.243 220.374C441.243 226.954 446.327 230.962 451.95 230.962ZM472.275 210.205H464.32V230.543H472.275C477.868 230.543 482.953 226.685 482.953 220.374C482.953 214.063 477.868 210.205 472.275 210.205ZM469.075 226.266V214.482H472.275C475.625 214.482 478.108 217.084 478.108 220.374C478.108 223.664 475.625 226.266 472.275 226.266H469.075ZM409.567 240.205H405.11C405.11 242.119 403.824 243.315 401.76 243.315H400.684V247.383H401.76C403.226 247.383 404.303 247.024 405.08 246.306V256.834H400.414V260.543H413.784V256.834H409.567V240.205ZM426.432 256.445C428.676 253.454 435.615 252.378 435.615 246.336C435.615 242.508 432.624 239.696 428.436 239.696C424.219 239.696 421.557 242.478 420.899 245.588L425.027 246.934C425.445 245.289 426.462 243.913 428.317 243.913C429.962 243.913 431.068 244.96 431.068 246.605C431.068 250.822 420.899 251.241 420.899 259.287V260.543H435.764V256.445H426.432ZM454.789 249.776C456.195 248.968 457.182 247.443 457.182 245.528C457.182 242.328 454.579 239.786 450.332 239.786C446.354 239.786 443.962 242.209 443.154 244.781L447.282 246.216C447.581 244.841 448.628 243.794 450.243 243.794C451.828 243.794 452.725 244.781 452.725 245.947C452.725 247.114 451.918 248.16 450.153 248.16H448.927V251.899H450.183C452.187 251.899 453.263 252.976 453.263 254.292C453.263 255.698 452.157 256.834 450.362 256.834C448.508 256.834 447.282 255.698 446.863 254.023L442.705 255.488C443.393 258.33 445.786 261.022 450.422 261.022C454.759 261.022 457.78 258.21 457.78 254.621C457.78 252.318 456.583 250.583 454.789 249.776ZM479.403 252.587V240.205H474.049L465.047 253.604V256.595H475.066V260.543H479.403V256.595H482.095V252.587H479.403ZM475.066 245.14V252.587H470.071L475.066 245.14ZM406.264 282.228H414.908V278.011H406.264V274.452H416.523V270.205H401.509V290.543H416.703V286.296H406.264V282.228ZM435.224 270.205H420.508V290.543H425.264V282.796H433.908V278.549H425.264V274.452H435.224V270.205ZM447.407 283.365H452.79C452.521 285.129 450.816 286.685 448.214 286.685C444.655 286.685 442.173 283.903 442.173 280.374C442.173 276.844 444.685 274.123 448.095 274.123C450.816 274.123 452.491 275.618 453.239 277.054L457.456 274.87C455.722 271.7 452.312 269.786 448.095 269.786C442.502 269.786 437.387 273.794 437.387 280.374C437.387 286.924 441.993 290.992 447.138 290.992C450.009 290.992 452.162 289.915 453.568 288.24V290.543H457.576V279.267H447.407V283.365ZM475.207 278.011H466.563V270.205H461.808V290.543H466.563V282.228H475.207V290.543H479.933V270.205H475.207V278.011Z" fill="black"/>
</g>
<defs>
<clipPath id="clip0">
<rect width="1000" height="560" fill="white"/>
</clipPath>
</defs>
</svg>
