<svg width="1000" height="560" viewBox="0 0 1000 560" fill="none" xmlns="http://www.w3.org/2000/svg">
<rect width="1000" height="560" fill="#FBC2C1"/>
<path d="M605.3 446.8H480.4L489.3 399.7H596.4L605.3 446.8Z" fill="#00A0D6"/>
<path d="M738.1 406.2H351.1C340.9 406.2 332.7 398 332.7 387.8V132.4C332.8 122.2 341 114 351.1 114H738C748.2 114 756.4 122.2 756.4 132.4V387.9C756.5 398 748.2 406.2 738.1 406.2Z" fill="#0D234B"/>
<path d="M740.9 129.7H348.4V352.5H740.9V129.7Z" fill="white"/>
<path d="M604.1 187.7H483.8C481.6 187.7 479.8 186.5 479.8 184.9C479.8 183.4 481.6 182.1 483.8 182.1H604.1C606.3 182.1 608.1 183.3 608.1 184.9C608.1 186.4 606.3 187.7 604.1 187.7Z" fill="#F3F2F2"/>
<path d="M572.7 173.9H515.2C511.9 173.9 509.2 171.2 509.2 167.9C509.2 164.6 511.9 161.9 515.2 161.9H572.7C576 161.9 578.7 164.6 578.7 167.9C578.7 171.2 576 173.9 572.7 173.9Z" fill="#F3F2F2"/>
<path d="M583.2 318H504.6C499.7 318 495.7 314 495.7 309.1C495.7 304.2 499.7 300.2 504.7 300.2H583.3C588.2 300.2 592.2 304.2 592.2 309.1C592.2 314 588.1 318 583.2 318Z" fill="#005D92"/>
<path d="M562.3 311.8H525.5C524 311.8 522.7 310.6 522.7 309C522.7 307.5 523.9 306.2 525.5 306.2H562.3C563.8 306.2 565.1 307.4 565.1 309C565.1 310.6 563.9 311.8 562.3 311.8Z" fill="#00A0D6"/>
<path d="M493.8 278.7H443.3C440.5 278.7 438.2 276.4 438.2 273.6V217.9C438.2 215.1 440.5 212.8 443.3 212.8H493.8C496.6 212.8 498.9 215.1 498.9 217.9V273.6C499 276.4 496.7 278.7 493.8 278.7Z" fill="#F3F2F2"/>
<path d="M569.1 278.7H518.6C515.8 278.7 513.5 276.4 513.5 273.6V217.9C513.5 215.1 515.8 212.8 518.6 212.8H569.1C571.9 212.8 574.2 215.1 574.2 217.9V273.6C574.3 276.4 572 278.7 569.1 278.7Z" fill="#F3F2F2"/>
<path d="M644.5 278.7H594C591.2 278.7 588.9 276.4 588.9 273.6V217.9C588.9 215.1 591.2 212.8 594 212.8H644.5C647.3 212.8 649.6 215.1 649.6 217.9V273.6C649.7 276.4 647.4 278.7 644.5 278.7Z" fill="#F3F2F2"/>
<path d="M596.4 406.2L484.3 426.3L488 406.2H596.4Z" fill="#005D92"/>
<path d="M464.4 446.8H621.2" stroke="#005D92" stroke-width="2.5" stroke-miterlimit="10" stroke-linecap="round" stroke-linejoin="round"/>
<path d="M544.6 389.6C550.565 389.6 555.4 384.765 555.4 378.8C555.4 372.835 550.565 368 544.6 368C538.635 368 533.8 372.835 533.8 378.8C533.8 384.765 538.635 389.6 544.6 389.6Z" fill="#005D92"/>
<path d="M486.5 260H450.7C449.2 260 447.9 258.8 447.9 257.2V235.4C447.9 233.9 449.1 232.6 450.7 232.6H486.5C488 232.6 489.3 233.8 489.3 235.4V257.2C489.3 258.7 488 260 486.5 260Z" fill="white"/>
<path d="M482.3 241.3C480.6 241.3 479.3 240 479.3 238.3C479.3 236.6 480.6 235.3 482.3 235.3C484 235.3 485.3 236.6 485.3 238.3C485.3 239.9 483.9 241.3 482.3 241.3Z" fill="#F06365"/>
<g opacity="0.5">
<path opacity="0.5" d="M481.9 254.7H471.2C469.3 254.7 467.8 253.2 467.8 251.3C467.8 249.4 469.3 247.9 471.2 247.9H481.9C483.8 247.9 485.3 249.4 485.3 251.3C485.3 253.2 483.7 254.7 481.9 254.7Z" fill="#8EDDF9"/>
</g>
<path d="M557.9 261.4H563.9C565.4 261.4 566.7 260.2 566.7 258.6V234C566.7 232.5 565.5 231.2 563.9 231.2H557.9V261.4Z" fill="#005D92"/>
<path d="M561.5 261.4H524.6C523.1 261.4 521.8 260.2 521.8 258.6V234C521.8 232.5 523 231.2 524.6 231.2H558.8C560.3 231.2 561.6 232.4 561.6 234V261.4H561.5Z" fill="#00A0D6"/>
<g opacity="0.5">
<path d="M556.7 239.8C556.7 241.5 555.3 242.9 553.6 242.9H549C547.3 242.9 545.9 241.5 545.9 239.8C545.9 238.1 547.3 236.7 549 236.7H553.6C555.3 236.7 556.7 238.1 556.7 239.8Z" fill="#8EDDF9"/>
</g>
<path d="M599.2 261.4H630.4V228.2H596.4V258.6C596.4 260.1 597.7 261.4 599.2 261.4Z" fill="#5EC584"/>
<path d="M639.3 261.4H629.5V227.1H642V258.6C642.1 260.1 640.9 261.4 639.3 261.4Z" fill="#005E41"/>
<path d="M596.7 233.3H630.1C631.8 233.3 633.2 231.9 633.2 230.2C633.2 228.5 631.8 227.1 630.1 227.1H596.7C595 227.1 593.6 228.5 593.6 230.2C593.6 231.9 595 233.3 596.7 233.3Z" fill="#5EC584"/>
<path d="M641.8 233.3H636.8C635.1 233.3 633.7 231.9 633.7 230.2C633.7 228.5 635.1 227.1 636.8 227.1H641.8C643.5 227.1 644.9 228.5 644.9 230.2C644.9 231.9 643.5 233.3 641.8 233.3Z" fill="#005E41"/>
<path d="M596.4 233.7L629.6 238.1V233.3H596.4V233.7Z" fill="#005E41"/>
<path opacity="0.5" d="M622.7 257.7H616.1C614.4 257.7 613 256.3 613 254.6C613 252.9 614.4 251.5 616.1 251.5H622.7C624.4 251.5 625.8 252.9 625.8 254.6C625.7 256.3 624.4 257.7 622.7 257.7Z" fill="#E0F8FF"/>
<path d="M375.5 448.1H407.2C415.4 448.1 422 441.5 422 433.3V302.1C422 293.9 415.4 287.3 407.2 287.3H375.5V448.1Z" fill="#005D92"/>
<path d="M394.5 448.1H197.8C189.6 448.1 183 441.5 183 433.3V302.1C183 293.9 189.6 287.3 197.8 287.3H379.7C387.9 287.3 394.5 293.9 394.5 302.1V448.1Z" fill="#00A0D6"/>
<g opacity="0.5">
<path d="M369 333C369 342.1 361.6 349.5 352.5 349.5H327.9C318.8 349.5 311.4 342.1 311.4 333C311.4 323.9 318.8 316.5 327.9 316.5H352.5C361.6 316.5 369 323.9 369 333Z" fill="#8EDDF9"/>
</g>
<path d="M432.1 448.1H333.7C325.8 448.1 319.3 441.7 319.3 433.7V378.3C319.3 370.4 325.7 363.9 333.7 363.9H432.1C440 363.9 446.5 370.3 446.5 378.3V433.7C446.4 441.6 440 448.1 432.1 448.1Z" fill="white"/>
<path d="M424.9 390.6C419.8 390.6 415.7 386.5 415.7 381.4C415.7 376.3 419.8 372.2 424.9 372.2C430 372.2 434.1 376.3 434.1 381.4C434.1 386.5 430 390.6 424.9 390.6Z" fill="#F06365"/>
<g opacity="0.5">
<path opacity="0.5" d="M423.8 431.9H390.7C385 431.9 380.3 427.3 380.3 421.5C380.3 415.8 384.9 411.1 390.7 411.1H423.8C429.5 411.1 434.2 415.7 434.2 421.5C434.1 427.2 429.5 431.9 423.8 431.9Z" fill="#8EDDF9"/>
</g>
<path d="M740.9 347.6C739.4 345.2 737.6 342.9 735.7 340.8C733.1 337.9 729.8 334 725.6 333.6C723.4 333.4 721.2 334.1 719.5 335.4C718.5 336.2 717.8 337.2 717.4 338.3C716.7 340.2 717.1 342.4 718 344.2C721.2 350.7 728.7 352.3 735.2 353.3C735.7 353.4 742.5 353.8 742.5 354C742.5 353.9 740.9 347.6 740.9 347.6Z" fill="#5EC584"/>
<path d="M761.4 320C764.1 314.8 769.6 304 776.3 303.7C778 303.6 779.5 304.4 780.9 305.4C782.5 306.6 783.8 308.2 784.4 310.1C785.1 312 785 314.1 784.1 315.8C783.2 317.4 781.7 318.6 780.1 319.4C773.8 322.8 767 325.5 760.3 328.1" fill="#5EC584"/>
<path d="M741.6 350.3C741.6 350.3 736.1 349.8 730.9 346.5" stroke="#005E41" stroke-width="2.5" stroke-miterlimit="10" stroke-linecap="round"/>
<path d="M749.9 383.4L733.3 317.1" stroke="#005E41" stroke-width="2.5" stroke-miterlimit="10"/>
<path d="M711.6 304.9C713.8 302 718 301.6 720.7 304.1L725.2 308.3L723.1 302.7C721.8 299.3 723.8 295.5 727.3 294.6C730.8 293.7 734.4 296 735 299.6L736 306.1L738.1 299.6C739.2 296.1 743.1 294.4 746.4 295.8C749.7 297.2 751.1 301.2 749.4 304.4L742.5 317L741.7 318.4C738.9 323.6 732.3 325.4 727.2 322.3L725.7 321.4L713.3 313.9C710.2 311.9 709.4 307.8 711.6 304.9Z" fill="#FBC2C1"/>
<path d="M752.8 383.9L767.1 277.9" stroke="#005E41" stroke-width="2.5" stroke-miterlimit="10"/>
<path d="M753.4 257.2C756.7 255.6 760.6 257.1 761.9 260.5L764.1 266.2L764.7 260.2C765 256.6 768.4 254 772 254.7C775.6 255.4 777.8 259 776.7 262.5L774.8 268.8L779.5 263.8C782 261.1 786.2 261.2 788.6 264C791 266.8 790.5 271 787.5 273.1L775.8 281.4L774.5 282.3C769.7 285.7 763 284.5 759.8 279.5L758.8 278L750.9 265.8C749 263 750.2 258.9 753.4 257.2Z" fill="#F06365"/>
<path d="M760.9 323.8L771.2 317.1" stroke="#005E41" stroke-width="2.5" stroke-miterlimit="10" stroke-linecap="round"/>
<path d="M774.5 315L774.4 315.1" stroke="#005E41" stroke-width="2.5" stroke-miterlimit="10" stroke-linecap="round"/>
<path d="M769.4 378.4H762L773.3 364.9H725.3L736.6 378.4H729.3C710.1 378.4 694.5 394 694.5 413.2C694.5 432.4 710.1 448 729.3 448H769.4C788.6 448 804.2 432.4 804.2 413.2C804.2 394 788.6 378.4 769.4 378.4Z" fill="#00A0D6"/>
<path d="M756.9 372.4C752.7 380.8 752 388.7 754.9 394.8C756.4 397.8 758.9 400 761.8 400.7C768 402.1 774.9 397.4 780.4 393.6C781.5 392.8 782.6 392.1 783.5 391.5C786.3 389.8 789 388.1 791.7 386.6C791 386 790.3 385.5 789.6 384.9C787.2 386.3 784.8 387.8 782.3 389.3C781.3 389.9 780.2 390.6 779.1 391.4C774.2 394.7 767.5 399.3 762.4 398.1C760.3 397.6 758.3 395.9 757.2 393.6C753 384.9 757.9 373 764.9 364.8H761.7C759.9 367.2 758.3 369.8 756.9 372.4Z" fill="#005D92"/>
<path d="M779.1 446.7C780 446.5 780.8 446.2 781.6 445.9C781.8 442.2 783.1 438.5 784.4 434.7C785.8 430.6 787.2 426.4 787.3 422C787.4 417.9 786.3 414.1 784.1 411.3C781.5 408 777.3 406.4 773.6 407.1C769 408 766 412.1 763.7 415.4C752.5 430.9 742.1 437.6 731.8 435.8C728.3 435.2 725.1 433.1 723.4 430.3C720.8 425.9 722.5 420.9 724.5 416.1C727.2 409.7 728.9 404.3 729.8 399.4C730.8 394.1 730.4 389.6 728.6 385.9C727.3 383.2 725.2 380.9 722.8 379C721.7 379.2 720.7 379.5 719.6 379.7C722.4 381.7 724.9 384 726.3 386.9C727.8 390.1 728.2 394.1 727.2 398.8C726.3 403.6 724.6 408.8 722 415.1C719.9 420.3 717.9 426.2 721.1 431.6C723.2 435 727 437.5 731.2 438.3C742.6 440.3 753.8 433.3 765.6 416.9C767.7 414 770.3 410.3 774 409.6C776.8 409 780 410.3 782 412.9C783.8 415.2 784.7 418.4 784.6 421.9C784.5 425.9 783.1 430 781.8 433.9C780.6 438 779.1 442.3 779.1 446.7Z" fill="#005D92"/>
</svg>
